<svg id="Layer_1" data-name="Layer 1" xmlns="http://www.w3.org/2000/svg" viewBox="90 330 920 350">
    <defs>
        <style>
            .cls-1 {
                fill: #f4eee8;
            }

            .cls-2 {
                fill: #00d9c3;
            }
        </style>
    </defs>
    <title>logo seegnal</title>
    <rect class="cls-1" x="944.12" y="423.77" width="20.88" height="150.88"/>
    <path class="cls-2" d="M187.7,634.88q0,2.93,4.52,8a24.25,24.25,0,0,0,5.31,4.84c.8.17,1.28-.17,1.43-1l1.35-127.39-14.11-1.43Z"/>
    <path class="cls-2" d="M181.28,582.56q-32.34,10.22-43.75,42.57l-.48,2.14c0,1.07.65,1,1.9-.24q22.83-18.56,42.33-25.45l.72-.24-.48-18.78Q181.52,582.32,181.28,582.56Z"/>
    <path class="cls-2" d="M278.16,453.34q-.33-9.66-16.49-20.13t-53.35-6.66a3.77,3.77,0,0,1-.72.08l-.24,25a4.18,4.18,0,0,0,.72-.08q12.58-1.38,17.28-.48a23.3,23.3,0,0,0,13,12.45q11,3.11,25.61,1.34T278.16,453.34ZM256.59,450a5.91,5.91,0,0,1-.83,1.05l0,0a4.09,4.09,0,0,1-.94.68l-.09.05h0a4.55,4.55,0,0,1-1.39-1.2,7.4,7.4,0,0,1-1.28-2.57c0-.1-.05-.2-.07-.3a9,9,0,0,1-.17-.93,10.3,10.3,0,0,1-.1-1.5h0c0-.23,0-.45,0-.68s0-.44.05-.65a7.87,7.87,0,0,1,1.12-3.34,5.16,5.16,0,0,1,.82-1l0,0a3,3,0,0,1,1-.62,3.43,3.43,0,0,1,1.49,1.09,5.38,5.38,0,0,1,.41.58,4.59,4.59,0,0,1,.26.49,9.48,9.48,0,0,1,.85,4.18,9.63,9.63,0,0,1-.78,4A6.59,6.59,0,0,1,256.59,450Z"/>
    <path class="cls-2" d="M218.62,495l-38.05-6.42q-17.35-3.09-23.54-5.95-11.65-5-4.05-13.08,7.67-7,26.16-12.6l-.39-25.85q-33.27,8.64-51.69,27.75-21.65,23.55,12.13,40.9,18.08,9.29,59.93,13.08,29.73,2.86,40.19,17.6,10.94,14.74-7.61,30.21-4.51,3.8-26.16,12.6L205.3,594Q235,583,245.5,575.42q26.87-18.78,19.73-45.42Q257.63,502.42,218.62,495Z"/>
    <path class="cls-2" d="M210.74,382.23a17.51,17.51,0,1,0-25.41,15.62l.71,85.3,14.51,2.14.71-87.5A17.5,17.5,0,0,0,210.74,382.23Z"/>
    <path class="cls-2" d="M364.37,544.8a37.68,37.68,0,0,1-52.32-1.06q-6.87-7.12-9-14.53h92.79a58.35,58.35,0,1,0-3.25,10.3H369.13Zm-52.32-54.44a37.85,37.85,0,0,1,63.42,17.71H302A36.55,36.55,0,0,1,312.05,490.36Z"/>
    <path class="cls-1" d="M706,510.65v-.1a28.93,28.93,0,0,1,3.38-13.26,33.09,33.09,0,0,1,52.64-8.68l.26.27c5.46,5.64,9.1,12.15,9.25,19.55v66.8h20.77V512.75h0c0-.33,0-.66,0-1v-.42A53.54,53.54,0,0,0,686,502.42c0,.2-.07.39-.1.59s0,.18,0,.26a53.54,53.54,0,0,0-.59,7.32c0,.35,0,.74,0,1.09v1.07h0v62.48H706V510.65Z"/>
    <path class="cls-1" d="M865.91,457.79a59.07,59.07,0,0,0-55.23,80,53.68,53.68,0,0,0,3.15,7.06,57.36,57.36,0,0,0,9.2,12.61l.24.26.27.28A59.77,59.77,0,0,0,834.81,567a53.53,53.53,0,0,0,14.91,6.6,59.37,59.37,0,0,0,35.3-.91,56.19,56.19,0,0,0,14.87-7.59l.67-.49,0,0c1-.76,2.06-1.55,3-2.37v9.82s0,1.74,0,2.31a2.45,2.45,0,0,0,0,.27h20.89v-1.14s1.38-47.9.43-63.82C923.19,480.3,896.11,457.79,865.91,457.79Zm0,96.79a37.74,37.74,0,1,1,37.74-37.74A37.74,37.74,0,0,1,865.91,554.58Z"/>
    <path class="cls-2" d="M496.23,544.8a37.68,37.68,0,0,1-52.32-1.06q-6.87-7.12-9-14.53h92.78a58.35,58.35,0,1,0-3.25,10.3H501Zm-52.32-54.44a37.85,37.85,0,0,1,63.42,17.71H433.87A36.63,36.63,0,0,1,443.91,490.36Z"/>
    <path class="cls-1" d="M606.85,458.39A59.19,59.19,0,1,0,644.76,563v7.25h0a37.91,37.91,0,0,1-74.71,9.12H548.36a59.19,59.19,0,0,0,117.58-5.73V514.2A59.19,59.19,0,0,0,606.85,458.39Zm0,97.1a37.91,37.91,0,1,1,37.91-37.91A37.91,37.91,0,0,1,606.85,555.49Z"/>
<script xmlns=""/></svg>