<?xml version="1.0" encoding="UTF-8" standalone="no"?>
<!-- Generator: Adobe Illustrator 18.1.1, SVG Export Plug-In . SVG Version: 6.00 Build 0)  -->
<svg version="1.1" id="Capa_1" x="0px" y="0px" viewBox="0 0 611.999 611.999" style="enable-background:new 0 0 611.999 611.999;" xmlSpace="preserve" sodipodiDocname="notification-bell-white.svg" inkscapeVersion="1.1.1 (3bf5ae0d25, 2021-09-20)" xmlnsInkscape="http://www.inkscape.org/namespaces/inkscape" xmlnsSodipodi="http://sodipodi.sourceforge.net/DTD/sodipodi-0.dtd" xmlns="http://www.w3.org/2000/svg" xmlnsSvg="http://www.w3.org/2000/svg">
   <defs id="defs45">


   </defs>
   <sodipodiNamedview id="namedview43" pagecolor="#ffffff" bordercolor="#666666" borderopacity="1.0" inkscapePageshadow="2" inkscapePageopacity="0.0" inkscapePagecheckerboard="true" showgrid="false" inkscapeZoom="0.67973965" inkscapeCx="169.918" inkscapeCy="375.87921" inkscapeWindowWidth="1920" inkscapeWindowHeight="1017" inkscapeWindowX="1912" inkscapeWindowY="-8" inkscapeWindowMaximized="1" inkscapeCurrentLayer="g8"/>
   <g id="g10">
      <g id="g8">
         <path d="M 570.107,500.254 C 505.07,470.883 502.596,344.813 502.548,341.632 V 257.054 C 502.548,175.652 452.806,105.655 382.121,75.851 381.969,34 347.883,0 306.001,0 264.118,0 230.033,34.002 229.88,75.849 159.198,105.653 109.455,175.65 109.455,257.052 v 84.578 c -0.046,3.181 -2.522,129.251 -67.561,158.622 -7.409,3.347 -11.481,11.412 -9.768,19.36 1.711,7.949 8.74,13.626 16.871,13.626 h 164.88 c 3.38,18.594 12.172,35.892 25.619,49.903 17.86,18.608 41.479,28.856 66.502,28.856 25.025,0 48.644,-10.248 66.502,-28.856 13.449,-14.012 22.241,-31.311 25.619,-49.903 h 164.88 c 8.131,0 15.159,-5.676 16.872,-13.626 1.715,-7.948 -2.355,-16.012 -9.764,-19.358 z m -85.673,-60.395 c 6.837,20.728 16.518,41.544 30.246,58.866 H 97.32 c 13.726,-17.32 23.407,-38.135 30.244,-58.866 z M 306.001,34.515 c 18.945,0 34.963,12.73 39.975,30.082 -12.912,-2.678 -26.282,-4.09 -39.975,-4.09 -13.693,0 -27.063,1.411 -39.975,4.09 5.013,-17.351 21.031,-30.082 39.975,-30.082 z M 143.97,341.736 v -84.685 c 0,-89.343 72.686,-162.029 162.031,-162.029 89.345,0 162.031,72.686 162.031,162.029 v 84.826 c 0.023,2.596 0.427,29.879 7.303,63.465 H 136.663 c 6.88,-33.618 7.286,-60.949 7.307,-63.606 z m 162.031,235.749 c -26.341,0 -49.33,-18.992 -56.709,-44.246 h 113.416 c -7.379,25.254 -30.364,44.246 -56.707,44.246 z" id="path2" style="fill:#ffffff;fill-opacity:1"/>
      </g>
   </g>
   <g id="g12">
   </g>
   <g id="g14">
   </g>
   <g id="g16">
   </g>
   <g id="g18">
   </g>
   <g id="g20">
   </g>
   <g id="g22">
   </g>
   <g id="g24">
   </g>
   <g id="g26">
   </g>
   <g id="g28">
   </g>
   <g id="g30">
   </g>
   <g id="g32">
   </g>
   <g id="g34">
   </g>
   <g id="g36">
   </g>
   <g id="g38">
   </g>
   <g id="g40">
   </g>
<script xmlns=""/></svg>