<svg xmlns="http://www.w3.org/2000/svg" viewBox="0 0 40 40">
                        <defs>
                            <style>
                                        .a {
                                            fill: none;
                                            stroke: #1c2275;
                                            stroke-linecap: round;
                                            stroke-linejoin: round;
                                            stroke-width: 0.83px;
                                        }
                                    </style>
                        </defs>
                        <path class="a" d="M26.28,13.4c-2.41-.18-4.17,1-6.27,1.73h0c-2.1-.74-3.86-1.91-6.27-1.73s-6,1.71-5,8.24,4,9.54,6.1,10.23,3.72-.49,5.18-.49h0c1.46,0,3.13,1.26,5.18.49,2.53-.95,5.07-3.7,6.1-10.23S28.68,13.57,26.28,13.4Z"/>
                        <path class="a" d="M20,14.28s1-3.65,3.79-4.28"/>
                        <path class="a" d="M19.88,12.11s1.28-3.62-4.54-4.23C15,12.37,19.88,12.11,19.88,12.11Z"/>
                        <line class="a" x1="29.97" y1="15.53" x2="10.69" y2="26.96"/>
                    <script xmlns=""/></svg>